<svg xmlns="http://www.w3.org/2000/svg" width="388.882" height="83.452" viewBox="0 0 388.882 83.452"><path fill="#535454" d="M138.722 30.838h-9.26c-4.129 0-5.571-2.118-5.571-4.122 0-2.003 1.442-4.068 5.571-4.068h9.26v8.19zM68.77 29.345v-6.697h9.51c2.182 0 4.686.622 4.686 3.247 0 2.638-2.504 3.45-4.686 3.45h-9.51zm0 12.947v-7.07h9.883c3.38 0 5.318.943 5.318 3.567 0 2.622-1.938 3.503-5.318 3.503H68.77zm100.86-6.443h12.644c3.879 0 5.004 1.246 5.004 2.814 0 2.511-2.75 3.63-7.389 3.63-5.313 0-12.443-1.378-17.583-2.75l-1.495 8.691c5.878 1.751 12.888 3.508 22.647 3.508 12.52 0 25.659-3.001 25.659-11.143 0-5.556-6.193-8.005-11.513-8.377v-.248c4.255-.819 8.566-3.757 8.566-8.138 0-7.442-10.449-10.266-21.4-10.266-7.945 0-16.585 1.696-22.398 3.257l1.193 8.384c5.189-1.31 11.754-2.624 16.646-2.624 4.316 0 6.563.813 6.563 3.177 0 1.518-.872 2.768-4.314 2.768h-12.83v7.317zm128.524 6.502c-4.499 0-10.766-2.437-10.766-9.567 0-7.572 6.196-9.758 10.766-9.758 4.571 0 10.753 2.185 10.753 9.758 0 7.13-6.25 9.567-10.753 9.567M45.608 27.152V16.827c-5.059-2.121-10.885-3.449-17.764-3.449C14.453 13.378 0 18.46 0 32.845 0 46.73 14.397 51.99 28.094 51.99c6.504 0 12.828-1.183 17.515-3.184V38.475c-3.935 1.621-7.817 2.5-11.949 2.5-5.875 0-12.326-1.936-12.326-8.13 0-6.001 5.574-8.318 11.577-8.318 3.879-.001 8.575 1.059 12.697 2.625m166.071 22.961h19.837V37.095h13.513v13.019h19.901V15.267h-19.901v12.077h-13.513V15.267h-19.837v34.846zm137.095 0l20.648-17.455v17.455h19.46V15.267h-17.274l-20.652 17.456V15.267h-19.452v34.847h17.27v-.001zm-224.377 0l7.125-11.693h7.201v11.693h19.085V15.267c-8.13-.877-19.711-1.192-23.339-1.192-15.399 0-29.91 1.003-29.91 12.77 0 5.061 4.442 8.066 9.447 9.321l-10.38 13.948h20.771v-.001zm-74.713 0c9.256.813 17.078 1.247 25.649 1.247 12.516 0 28.729-.681 28.729-10.446 0-5.692-6.389-8.692-11.893-8.692v-.382c5.256-.621 9.515-4.188 9.515-8.381 0-8.696-13.835-9.385-26.847-9.385-8.639 0-15.583.316-25.153 1.192v34.847zm248.47-36.735c-13.648 0-31.223 4.893-31.223 19.467 0 14.264 17.773 19.146 31.223 19.146 13.459 0 31.222-4.882 31.222-19.146-.001-14.574-17.576-19.467-31.222-19.467"/><path fill="#FAAC3D" d="M368.798 12.197L354.528 0v24.401l14.27-12.204z"/><path fill="#5DB5E5" d="M.048 65.383h77.767v18.069H.048z"/><path fill="#FAAC3D" d="M77.814 65.383h77.767v18.069H77.814z"/><path fill="#91C74B" d="M155.581 65.383h77.768v18.069h-77.768z"/><path fill="#FCE535" d="M233.348 65.383h77.767v18.069h-77.767z"/><path fill="#9061A9" d="M311.114 65.383h77.768v18.069h-77.768z"/></svg>